<svg width="1011" height="468" viewBox="0 0 1011 468" fill="none" xmlns="http://www.w3.org/2000/svg">
<path d="M1004 348.191C1003.35 380.72 996.12 412.665 984.753 443.051C983.112 447.357 974.031 474.895 969.894 474.895C963.438 474.895 956.979 474.895 950.519 474.895C878.879 474.908 807.24 474.919 735.6 474.929C594.427 474.949 453.254 474.969 312.081 474.983C228.478 474.993 144.872 475.047 61.2697 474.997C55.7866 474.997 51.2191 467.91 48.069 464.17C42.2705 457.279 38.2421 449.45 35.7939 441.145C32.4607 429.83 30.3753 413.099 36.567 391.815C39.9105 380.323 47.0788 368.736 52.5009 360.032C64.1452 341.348 79.3025 325.299 96.04 311.108C115.28 294.794 140.033 279.769 149.508 255.168C163.522 218.787 139.474 183.091 142.756 146.432C148.229 85.3148 208.957 39.636 262.306 19.016C303.641 3.03806 349.459 -0.827567 393.435 0.572873C414.954 1.25783 436.442 3.38053 457.666 6.99184C477.051 10.2878 499.886 13.6583 517.664 22.5459C555.798 36.6588 588.808 59.5982 616.783 88.9261C630.374 103.175 642.429 119.169 657.261 132.18C674.961 147.704 693.075 147.144 715.113 142.872C757.044 134.646 798.013 125.68 840.518 136.019C881.68 146.029 917.068 171.037 946.287 200.995C984.916 240.618 1005.06 292.919 1004 348.191C1004.25 335.081 1003.96 350.303 1004 348.191Z" fill="#EDF4FF"/>
<path d="M217.536 340.205C217.536 340.205 185.417 332.247 172.8 352.188C160.182 372.127 134.947 372.9 121.699 388.915C108.451 404.93 98.3559 433.787 128.637 448.063C158.917 462.338 234.236 441.389 234.236 441.389L248.63 348.486L217.532 340.205H217.536Z" fill="#E1ECFE"/>
<path d="M265.273 250.373C265.273 250.373 260.97 223.867 238.258 213.063C224.623 206.58 183.678 201.751 184.939 230.771C185.943 253.829 162.858 251.004 171.901 277.826C179.687 300.922 206.163 291.966 206.163 291.966L265.273 250.37V250.373Z" fill="#ACD29A"/>
<path d="M959.254 405.741C929.068 381.632 885.23 410.787 876.818 377.983C868.405 345.176 828.674 342.701 828.674 342.701L788.098 474.925C842.241 474.919 896.38 474.908 950.522 474.902C956.979 474.902 963.438 474.902 969.898 474.902C974.031 474.902 983.116 447.364 984.757 443.058C984.903 442.671 985.042 442.281 985.187 441.891C981.491 431.569 973.265 416.938 959.257 405.744L959.254 405.741Z" fill="#ACD29A"/>
<path d="M828.674 145.232H560.725V475.265H828.674V145.232Z" fill="#98BAF4"/>
<path d="M828.674 161.373H587.449V197.323H828.674V161.373Z" fill="#EDF4FF"/>
<path d="M691.434 220.571H388.817V476.394H691.434V220.571Z" fill="white"/>
<path d="M696.168 211.276H381.333V220.571H696.168V211.276Z" fill="white"/>
<path d="M833.648 140.583H555.32V149.877H833.648V140.583Z" fill="white"/>
<path d="M584.614 243.697H388.817V291.247H584.614V243.697Z" fill="#3552CE"/>
<path d="M388.814 250.879H206.163V352.185H388.814V250.879Z" fill="#AFCDFB"/>
<path d="M388.814 373.263H206.163V474.569H388.814V373.263Z" fill="#AFCDFB"/>
<path d="M388.817 352.185H231.479V373.263H388.817V352.185Z" fill="#7FA8E5"/>
<path d="M415.449 284.55C410.871 284.55 406.568 282.767 403.33 279.532C400.091 276.297 398.311 271.99 398.311 267.413C398.311 262.835 400.095 258.532 403.33 255.294C406.568 252.059 410.871 250.275 415.449 250.275C420.027 250.275 424.33 252.059 427.568 255.294C430.806 258.532 432.586 262.835 432.586 267.413C432.586 271.99 430.803 276.294 427.568 279.532C424.33 282.77 420.027 284.55 415.449 284.55ZM415.449 251.852C411.292 251.852 407.385 253.469 404.445 256.409C401.505 259.349 399.888 263.256 399.888 267.413C399.888 271.57 401.505 275.476 404.445 278.416C407.385 281.356 411.292 282.974 415.449 282.974C419.606 282.974 423.512 281.356 426.452 278.416C429.392 275.476 431.01 271.57 431.01 267.413C431.01 263.256 429.392 259.349 426.452 256.409C423.512 253.469 419.606 251.852 415.449 251.852Z" fill="white"/>
<path d="M426.52 264.618H418.246V256.345H412.655V264.618H404.381V270.207H412.655V278.48H418.246V270.207H426.52V264.618Z" fill="white"/>
<path d="M446.181 259.203H449.819V265.748H456.53V259.203H460.168V275.741H456.53V269.101H449.819V275.741H446.181V259.203Z" fill="white"/>
<path d="M463.403 267.47C463.403 262.767 467.113 258.918 472.216 258.918C477.319 258.918 480.981 262.723 480.981 267.47C480.981 272.218 477.272 276.022 472.168 276.022C467.065 276.022 463.403 272.218 463.403 267.47ZM477.177 267.47C477.177 264.635 475.098 262.272 472.168 262.272C469.239 262.272 467.208 264.588 467.208 267.47C467.208 270.353 469.286 272.669 472.216 272.669C475.146 272.669 477.177 270.353 477.177 267.47Z" fill="white"/>
<path d="M482.968 273.33L485.118 270.756C486.607 271.983 488.167 272.763 490.055 272.763C491.544 272.763 492.443 272.173 492.443 271.156C492.443 270.234 491.876 269.762 489.113 269.054C485.779 268.203 483.63 267.28 483.63 263.95C483.63 260.949 486.041 258.966 489.418 258.966C491.829 258.966 493.884 259.722 495.562 261.068L493.673 263.808C492.209 262.791 490.767 262.177 489.374 262.177C487.98 262.177 487.248 262.814 487.248 263.666C487.248 264.754 487.956 265.107 490.815 265.839C494.169 266.714 496.061 267.918 496.061 270.848C496.061 274.13 493.555 275.975 489.988 275.975C487.482 275.975 484.955 275.1 482.972 273.33H482.968Z" fill="white"/>
<path d="M499.224 259.203H505.982C509.929 259.203 512.313 261.543 512.313 264.968C512.313 268.796 509.336 270.78 505.626 270.78H502.863V275.741H499.224V259.203ZM505.745 267.545C507.563 267.545 508.627 266.457 508.627 264.992C508.627 263.361 507.495 262.486 505.674 262.486H502.863V267.542H505.745V267.545Z" fill="white"/>
<path d="M515.175 259.203H518.814V275.741H515.175V259.203Z" fill="white"/>
<path d="M526.799 262.557H521.767V259.203H535.47V262.557H530.438V275.741H526.799V262.557Z" fill="white"/>
<path d="M541.804 259.084H545.157L552.244 275.741H548.44L546.928 272.031H539.935L538.423 275.741H534.714L541.8 259.084H541.804ZM545.632 268.82L543.435 263.455L541.238 268.82H545.632Z" fill="white"/>
<path d="M554.798 259.203H558.436V272.435H566.683V275.741H554.798V259.203Z" fill="white"/>
<path d="M828.674 354.057H706.642V434.591H828.674V354.057Z" fill="#AFCDFB"/>
<path d="M828.674 235.474H706.642V316.008H828.674V235.474Z" fill="#AFCDFB"/>
<path d="M828.674 163.285H589.989V195.014H828.674V163.285Z" fill="#AFCDFB"/>
<path d="M388.817 223.765L691.434 232.89V220.571H388.817V223.765Z" fill="#DFEBFD"/>
<path d="M388.813 250.275H194.735V260.305H388.813V250.275Z" fill="white"/>
<path d="M194.454 433.167C170.762 438.551 164.444 457.785 149.443 446.242C134.442 434.699 115.49 442.397 105.226 442.899C94.9582 443.4 96.535 419.315 74.4263 411.624C63.7857 407.921 45.9869 407.267 33.2608 407.82C31.5823 421.621 33.3524 432.848 35.8006 441.152C38.2488 449.457 42.2772 457.29 48.0757 464.176C50.7613 467.367 54.4777 472.986 58.9164 474.573H232.361C241.045 453.661 218.146 427.779 194.457 433.167H194.454Z" fill="#ACD29A"/>
<path d="M131.312 106.481C131.312 106.481 147.358 87.6444 185.729 89.7366C185.729 89.7366 241.438 58.3403 300.843 85.5522C300.843 85.5522 363.992 78.8111 410.756 91.3914C441.935 99.7771 452.233 108.576 452.233 108.576L131.309 106.484L131.312 106.481Z" fill="#F8FCFF"/>
<path d="M477.15 83.3786C477.15 76.5493 482.684 71.0154 489.513 71.0154C496.342 71.0154 501.876 76.5493 501.876 83.3786C501.876 90.2079 496.342 95.7418 489.513 95.7418C482.684 95.7418 477.15 90.2079 477.15 83.3786Z" fill="#F8FCFF"/>
<path d="M316.492 161.705C316.492 161.705 325.281 151.386 346.298 152.532C346.298 152.532 376.809 135.337 409.348 150.24C409.348 150.24 443.936 146.548 469.55 153.438C486.627 158.032 492.27 162.851 492.27 162.851L316.492 161.705Z" fill="#F8FCFF"/>
<path d="M648.553 362.677H435.91V473.762H648.553V362.677Z" fill="#98BAF4"/>
<path d="M642.395 370.445H443.058V474.135H642.395V370.445Z" fill="white"/>
<path d="M635.25 377.003H450.606V400.828H635.25V377.003Z" fill="#AFCDFB"/>
<path d="M504.599 407.297H450.606V473.684H504.599V407.297Z" fill="#AFCDFB"/>
<path d="M576.12 407.297H509.736V473.684H576.12V407.297Z" fill="#AFCDFB"/>
<path d="M635.25 407.297H580.684V473.684H635.25V407.297Z" fill="#AFCDFB"/>
<path d="M531.489 407.297H576.12V431.868L568.165 473.688H518.858L531.489 407.297Z" fill="#CCE1FF"/>
<path d="M568.104 419.932H518.441V473.762H568.104V419.932Z" fill="white"/>
<path d="M565.734 422.363H520.808V473.759H565.734V422.363Z" fill="#98BAF4"/>
<path d="M544.11 422.363H542.435V473.759H544.11V422.363Z" fill="white"/>
<path d="M538.43 448.063C538.43 447.476 538.905 447.001 539.491 447.001C540.078 447.001 540.553 447.476 540.553 448.063C540.553 448.649 540.078 449.124 539.491 449.124C538.905 449.124 538.43 448.649 538.43 448.063Z" fill="white"/>
<path d="M545.988 448.063C545.988 447.476 546.463 447.001 547.05 447.001C547.636 447.001 548.111 447.476 548.111 448.063C548.111 448.649 547.636 449.124 547.05 449.124C546.463 449.124 545.988 448.649 545.988 448.063Z" fill="white"/>
<path d="M467.781 407.297H495.118L486.393 473.688H459.056L467.781 407.297Z" fill="#CCE1FF"/>
<path d="M499.099 377.003L495.969 400.828H468.632L471.762 377.003H499.099Z" fill="#CCE1FF"/>
<path d="M593.6 407.297H620.937L612.213 473.688H584.875L593.6 407.297Z" fill="#CCE1FF"/>
<path d="M624.918 377.003L621.785 400.828H594.448L597.581 377.003H624.918Z" fill="#CCE1FF"/>
<path d="M586.557 377.003L582.023 400.828H532.716L537.25 377.003H586.557Z" fill="#CCE1FF"/>
<path d="M580.728 412.19H580.83L580.728 412.719V412.19Z" fill="#CCE1FF"/>
<path d="M420.939 473.718C420.939 473.718 419.626 462.105 431.403 459.158C443.18 456.215 447.801 445.699 461.473 454.533C475.146 463.366 470.819 473.718 470.819 473.718H420.939Z" fill="#ACD29A"/>
<path d="M763.677 316.008H723.302L740.965 235.474H781.343L763.677 316.008Z" fill="#BDD7FD"/>
<path d="M799.454 434.591H759.076L776.742 354.057H817.118L799.454 434.591Z" fill="#CCE1FF"/>
<path d="M742.029 354.057L724.366 434.591H706.642V354.057H742.029Z" fill="#CCE1FF"/>
<path d="M828.674 235.474V316.008H784.287L804.002 235.474H828.674Z" fill="#CCE1FF"/>
<path d="M651.798 163.285H648.434V195.014H651.798V163.285Z" fill="#EDF4FF"/>
<path d="M719.724 163.285H716.36V195.014H719.724V163.285Z" fill="#EDF4FF"/>
<path d="M785.969 163.285H782.605V195.014H785.969V163.285Z" fill="#EDF4FF"/>
<g opacity="0.5">
<path d="M247.796 287.24H227.563V319.178H247.796V287.24Z" fill="#98BAF4"/>
<path d="M248.634 320.209H226.342V286.212H248.634V320.209ZM228.4 318.151H246.576V288.27H228.4V318.151Z" fill="white"/>
<path d="M246.833 297.921H228.142V299.463H246.833V297.921Z" fill="white"/>
<path d="M246.833 308.551H228.142V310.094H246.833V308.551Z" fill="white"/>
<path d="M238.258 319.178V287.09H236.715V319.178H238.258Z" fill="white"/>
<path d="M306.221 287.24H285.988V319.178H306.221V287.24Z" fill="#98BAF4"/>
<path d="M307.059 320.209H284.767V286.212H307.059V320.209ZM286.825 318.151H305.001V288.27H286.825V318.151Z" fill="white"/>
<path d="M305.258 297.921H286.568V299.463H305.258V297.921Z" fill="white"/>
<path d="M305.258 308.551H286.568V310.094H305.258V308.551Z" fill="white"/>
<path d="M296.683 319.178V287.09H295.14V319.178H296.683Z" fill="white"/>
<path d="M364.646 287.24H344.413V319.178H364.646V287.24Z" fill="#98BAF4"/>
<path d="M365.484 320.209H343.192V286.212H365.484V320.209ZM345.251 318.151H363.426V288.27H345.251V318.151Z" fill="white"/>
<path d="M363.683 297.921H344.993V299.463H363.683V297.921Z" fill="white"/>
<path d="M363.683 308.551H344.993V310.094H363.683V308.551Z" fill="white"/>
<path d="M355.108 319.178V287.09H353.565V319.178H355.108Z" fill="white"/>
</g>
<g opacity="0.5">
<path d="M247.796 396.752H227.563V428.691H247.796V396.752Z" fill="#98BAF4"/>
<path d="M248.634 429.718H226.342V395.721H248.634V429.718ZM228.4 427.66H246.576V397.779H228.4V427.66Z" fill="white"/>
<path d="M246.833 407.433H228.142V408.976H246.833V407.433Z" fill="white"/>
<path d="M246.833 418.06H228.142V419.603H246.833V418.06Z" fill="white"/>
<path d="M238.261 428.687V396.599H236.718V428.687H238.261Z" fill="white"/>
<path d="M306.221 396.751H285.988V428.69H306.221V396.751Z" fill="#98BAF4"/>
<path d="M307.059 429.718H284.767V395.721H307.059V429.718ZM286.825 427.66H305.001V397.779H286.825V427.66Z" fill="white"/>
<path d="M305.258 407.433H286.568V408.976H305.258V407.433Z" fill="white"/>
<path d="M305.258 418.06H286.568V419.603H305.258V418.06Z" fill="white"/>
<path d="M296.686 428.687V396.599H295.143V428.687H296.686Z" fill="white"/>
<path d="M364.646 396.751H344.413V428.69H364.646V396.751Z" fill="#98BAF4"/>
<path d="M365.484 429.718H343.192V395.721H365.484V429.718ZM345.251 427.66H363.426V397.779H345.251V427.66Z" fill="white"/>
<path d="M363.683 407.433H344.993V408.976H363.683V407.433Z" fill="white"/>
<path d="M363.683 418.06H344.993V419.603H363.683V418.06Z" fill="white"/>
<path d="M355.111 428.687V396.599H353.568V428.687H355.111Z" fill="white"/>
</g>
<path d="M700.352 329.076H384.114V340.205H700.352V329.076Z" fill="#DFEBFD"/>
<path d="M280.074 250.275C280.074 250.275 285.54 232.483 299.002 232.89C312.46 233.297 316.669 245.684 321.294 243.697C325.919 241.71 339.381 242.856 340.222 250.275H280.077H280.074Z" fill="#ACD29A"/>
<path d="M921.072 412.441V419.979C921.072 420.651 920.913 421.295 920.628 421.865C919.936 423.252 918.495 424.204 916.847 424.204H915.494C913.178 424.204 911.269 422.309 911.269 419.979V412.441C911.269 411.648 911.496 410.909 911.883 410.271V410.261C912.632 409.033 913.972 408.216 915.494 408.216H916.847C919.173 408.216 921.072 410.125 921.072 412.441Z" fill="#233862"/>
<path opacity="0.3" d="M920.628 421.864C919.936 423.251 918.495 424.204 916.847 424.204H915.494C913.178 424.204 911.269 422.309 911.269 419.979V412.441C911.269 411.648 911.496 410.908 911.883 410.271C911.961 410.736 913.758 421.081 920.625 421.864H920.628Z" fill="#233862"/>
<path d="M854.109 467.621H874.987V446.55H853.203L854.109 467.621Z" fill="#172944"/>
<path d="M919.943 423.079L817.365 425.608V371.517H884.725C891.148 371.517 897.027 375.111 899.954 380.825L904.362 389.427L919.943 423.079Z" fill="white"/>
<path d="M861.671 464.193C861.671 469.914 864.621 476.224 864.621 476.224H869.615C874.003 476.224 877.56 470.839 877.56 464.193C877.56 457.547 869.008 452.162 864.621 452.162C860.233 452.162 861.671 457.547 861.671 464.193Z" fill="#233862"/>
<path d="M856.676 464.193C856.676 470.836 860.233 476.224 864.621 476.224C869.008 476.224 872.565 470.839 872.565 464.193C872.565 457.547 869.008 452.162 864.621 452.162C860.233 452.162 856.676 457.547 856.676 464.193Z" fill="#2B478B"/>
<path d="M858.737 464.193C858.737 469.198 861.416 473.254 864.722 473.254C868.029 473.254 870.707 469.198 870.707 464.193C870.707 459.188 868.029 455.133 864.722 455.133C861.416 455.133 858.737 459.188 858.737 464.193Z" fill="#AFCDFB"/>
<path d="M919.106 464.193C919.106 469.914 922.056 476.224 922.056 476.224H927.05C931.438 476.224 934.995 470.839 934.995 464.193C934.995 457.547 926.444 452.162 922.056 452.162C917.668 452.162 919.106 457.547 919.106 464.193Z" fill="#233862"/>
<path d="M914.111 464.193C914.111 470.836 917.668 476.224 922.056 476.224C926.444 476.224 930.001 470.839 930.001 464.193C930.001 457.547 926.444 452.162 922.056 452.162C917.668 452.162 914.111 457.547 914.111 464.193Z" fill="#2B478B"/>
<path d="M787.213 464.193C787.213 469.914 790.163 476.224 790.163 476.224H795.158C799.546 476.224 803.103 470.839 803.103 464.193C803.103 457.547 794.551 452.162 790.163 452.162C785.776 452.162 787.213 457.547 787.213 464.193Z" fill="#233862"/>
<path d="M782.218 464.193C782.218 470.836 785.775 476.224 790.163 476.224C794.551 476.224 798.108 470.839 798.108 464.193C798.108 457.547 794.551 452.162 790.163 452.162C785.775 452.162 782.218 457.547 782.218 464.193Z" fill="#2B478B"/>
<path d="M942.91 458.517C942.92 463.546 938.844 467.621 933.825 467.621H874.987C875.156 466.635 875.248 465.611 875.248 464.556C875.248 456.777 870.582 450.467 864.834 450.467C859.087 450.467 854.411 456.781 854.411 464.556C854.411 465.611 854.489 466.635 854.662 467.621H820.281C820.281 467.621 818.894 452.271 819.067 444.574C819.203 437.873 819.203 424.75 818.806 421.546C818.806 421.068 851.962 421.01 860.328 420.98C861.464 420.969 862.145 420.969 862.213 420.969L862.325 421.047L862.45 421.139C863.993 422.217 872.647 428.28 878.018 431.834C882.752 434.957 917.702 436.229 931.408 436.615C934.816 436.707 936.914 436.741 936.914 436.741C936.914 436.741 938.79 438.66 940.444 441.691C941.716 444.041 942.852 447.062 942.876 450.365C942.886 452.42 942.899 454.895 942.899 457.327C942.91 457.723 942.91 458.12 942.91 458.52V458.517Z" fill="white"/>
<path d="M911.673 420.966H865.574C864.505 420.966 863.542 420.342 863.098 419.376L851.688 393.988C851.311 393.161 851.925 392.218 852.834 392.218H901.466C902.534 392.218 903.511 392.856 903.942 393.842L912.117 412.519L914.162 417.185C914.935 418.969 913.629 420.966 911.676 420.966H911.673Z" fill="#98BAF4"/>
<path d="M890.198 457.323C890.188 458.12 890.154 458.87 890.11 459.538C889.778 463.956 885.339 467.621 885.339 467.621H874.983C875.153 466.635 875.248 465.611 875.248 464.556C875.248 461.915 874.702 459.436 873.773 457.323C871.942 453.217 868.629 450.467 864.838 450.467C861.047 450.467 857.717 453.217 855.886 457.323C854.957 459.436 854.411 461.915 854.411 464.556C854.411 465.614 854.492 466.635 854.665 467.621H817.365V371.52H847.307L847.449 389.427C847.449 389.427 847.954 392.113 848.975 394.51C849.891 396.653 851.108 399.505 852.43 402.608C855.157 408.972 858.341 416.402 860.331 420.976C861.328 423.292 862.033 424.869 862.213 425.212C862.773 426.276 871.08 430.779 878.103 434.777C879.856 435.774 881.531 436.737 882.979 437.609C885.047 438.853 886.665 439.904 887.428 440.596C889.344 442.322 890.3 451.294 890.198 457.32V457.323Z" fill="#DFEBFD"/>
<path d="M936.914 436.737H882.277L862.328 421.047L862.213 420.966H917.329L933.018 433.594L936.914 436.737Z" fill="white"/>
<path d="M889.35 445.957L884.41 445.469C882.684 445.299 881.287 444.004 880.982 442.302L879.846 436.056C879.822 435.954 879.812 435.862 879.822 435.76C883.342 437.781 886.305 439.585 887.428 440.596C888.245 441.335 888.893 443.376 889.347 445.957H889.35Z" fill="#A8302D"/>
<path d="M904.369 389.427H847.449C847.449 389.427 847.229 385.786 845.801 381.625C844.53 377.953 842.332 373.853 838.487 371.517H885C892.582 371.517 899.299 375.565 901.968 381.625C902.093 381.876 902.202 382.127 902.297 382.378C903.097 384.48 903.819 386.837 904.369 389.427Z" fill="white"/>
<path d="M889.361 445.957L884.41 445.469C882.684 445.299 881.287 444.004 880.982 442.301L879.846 436.055C879.822 435.954 879.812 435.852 879.822 435.75C883.342 437.781 886.305 439.589 887.428 440.599C888.245 441.338 888.893 443.38 889.357 445.96L889.361 445.957Z" fill="#A2C2DD"/>
<path d="M942.91 458.517C942.92 463.546 938.651 467.621 933.385 467.621H874.99C875.16 466.635 875.251 465.611 875.251 464.556C875.251 461.911 874.705 459.436 873.776 457.323H942.903C942.913 457.72 942.913 458.117 942.913 458.517H942.91Z" fill="#233862"/>
<path d="M854.414 464.556C854.414 465.611 854.492 466.635 854.665 467.621H817.365V457.323H855.893C854.96 459.436 854.417 461.911 854.417 464.556H854.414Z" fill="#233862"/>
<path d="M904.44 437.181H926.783C927.495 437.181 928.041 438.144 927.932 439.209L927.139 446.974C927.023 448.117 926.372 448.958 925.609 448.958H907.204C906.024 448.958 904.983 447.791 904.64 446.082L903.314 439.48C903.084 438.334 903.65 437.178 904.443 437.178L904.44 437.181Z" fill="#233862"/>
<path d="M912.117 412.519C885.763 411.17 867.937 397.067 862.556 392.218H901.466C902.534 392.218 903.511 392.856 903.941 393.842L912.117 412.519Z" fill="#AFCDFB"/>
<path d="M827.907 371.513H728.222V467.628H827.907V371.513Z" fill="white"/>
<path d="M904.369 389.427H847.449C847.449 389.427 847.229 385.785 845.801 381.625H901.968C902.093 381.876 902.202 382.127 902.297 382.378C903.097 384.48 903.819 386.837 904.369 389.427Z" fill="#DFEBFD"/>
<path d="M940.445 441.688C940.126 442.21 939.719 442.553 939.275 442.631L931.611 444.051C930.964 444.177 930.465 443.051 930.635 441.895L931.384 436.741L931.408 436.615L931.554 435.561C931.689 434.652 932.086 433.96 932.574 433.767L933.018 433.597L936.911 436.744C936.911 436.744 938.786 438.663 940.441 441.695L940.445 441.688Z" fill="#233862"/>
<path d="M887.428 434.774H728.222V442.875H887.428V434.774Z" fill="#3552CE"/>
<path d="M827.907 388.169H728.222V396.267H827.907V388.169Z" fill="#3552CE"/>
<path d="M763.874 415.34C763.874 407.504 770.225 401.153 778.061 401.153C785.898 401.153 792.252 407.504 792.252 415.34C792.252 423.177 785.898 429.531 778.061 429.531C770.225 429.531 763.874 423.177 763.874 415.34Z" fill="#3552CE"/>
<path d="M778.065 427.904C774.708 427.904 771.554 426.598 769.18 424.225C766.807 421.851 765.501 418.697 765.501 415.34C765.501 411.983 766.807 408.83 769.18 406.456C771.554 404.083 774.708 402.777 778.065 402.777C781.422 402.777 784.575 404.083 786.949 406.456C789.322 408.83 790.628 411.983 790.628 415.34C790.628 418.697 789.322 421.851 786.949 424.225C784.575 426.598 781.422 427.904 778.065 427.904ZM778.065 403.933C775.016 403.933 772.154 405.12 769.998 407.273C767.844 409.427 766.658 412.292 766.658 415.34C766.658 418.389 767.844 421.251 769.998 423.407C772.151 425.561 775.016 426.747 778.065 426.747C781.113 426.747 783.975 425.561 786.132 423.407C788.288 421.254 789.472 418.389 789.472 415.34C789.472 412.292 788.285 409.43 786.132 407.273C783.978 405.12 781.113 403.933 778.065 403.933Z" fill="white"/>
<path d="M786.176 413.292H780.113V407.226H776.013V413.292H769.95V417.389H776.013V423.455H780.113V417.389H786.176V413.292Z" fill="white"/>
<path d="M898.73 446.889L889.364 445.957H889.354L884.413 445.469C882.687 445.299 881.29 444.004 880.985 442.302L879.849 436.056C879.825 435.954 879.815 435.862 879.825 435.761V435.75C879.768 434.435 880.972 433.367 882.325 433.638L896.916 436.602C897.848 436.795 898.584 437.487 898.835 438.395L900.551 444.733C900.869 445.893 899.927 447.015 898.733 446.889H898.73Z" fill="#233862"/>
<path d="M847.639 396.786L857.459 420.973H840.61C840.61 420.973 837.154 420.393 836.71 413.33C836.235 405.788 836.239 392.778 836.239 392.778L843.634 392.744C846.452 393.171 846.896 394.717 847.639 396.789V396.786Z" fill="#98BAF4"/>
<path d="M852.461 408.552C852.461 408.552 853.312 418.328 848.487 421.003H857.503L852.461 408.552Z" fill="#233862"/>
<path d="M853.787 415.093C853.787 415.093 851.752 413.645 851.576 412.445V419.281H854.241L853.787 415.093Z" fill="#233862"/>
<path d="M851.576 412.441V419.979C851.576 420.651 851.416 421.295 851.132 421.865C850.44 423.252 848.999 424.204 847.351 424.204H845.998C843.682 424.204 841.773 422.309 841.773 419.979V412.441C841.773 411.648 842 410.909 842.387 410.271V410.261C843.136 409.033 844.475 408.216 845.998 408.216H847.351C849.677 408.216 851.576 410.125 851.576 412.441Z" fill="#233862"/>
<path d="M828.002 464.556C828.002 465.611 828.148 466.635 828.464 467.621H759.828V457.323H830.718C829.006 459.436 828.002 461.911 828.002 464.556Z" fill="#233862"/>
<path d="M796.396 464.556C796.396 465.611 796.542 466.635 796.857 467.621H728.222V457.323H799.112C797.4 459.436 796.396 461.911 796.396 464.556Z" fill="#233862"/>
<path d="M760.781 467.628H736.262C735.743 465.414 734.183 449.656 747.926 449.653C760.415 449.653 761.334 464.03 760.781 467.628Z" fill="#172944"/>
<path d="M743.935 464.193C743.935 469.914 746.885 476.224 746.885 476.224H751.88C756.268 476.224 759.825 470.839 759.825 464.193C759.825 457.547 751.273 452.162 746.885 452.162C742.498 452.162 743.935 457.547 743.935 464.193Z" fill="#233862"/>
<path d="M738.941 464.193C738.941 470.836 742.498 476.224 746.885 476.224C751.273 476.224 754.83 470.839 754.83 464.193C754.83 457.547 751.273 452.162 746.885 452.162C742.498 452.162 738.941 457.547 738.941 464.193Z" fill="#2B478B"/>
<path d="M741.002 464.193C741.002 469.198 743.681 473.254 746.987 473.254C750.293 473.254 752.972 469.198 752.972 464.193C752.972 459.188 750.293 455.133 746.987 455.133C743.681 455.133 741.002 459.188 741.002 464.193Z" fill="#AFCDFB"/>
<path d="M583.085 365.41C582.576 364.43 594.166 360.903 594.349 370.571C594.349 370.571 616.061 370.038 605.695 357.936C602.108 353.748 602.474 350.283 602.582 347.058C602.691 343.833 600.348 334.461 592.311 335.404C592.311 335.404 590.205 334.546 587.581 335.909C581.606 339.008 568.226 368.974 583.085 365.41Z" fill="#163560"/>
<path d="M618.584 376.22C618.584 376.22 619.998 374.067 621.137 374.026C622.277 373.985 624.386 373.392 624.216 373.816C624.047 374.236 622.741 374.28 622.612 374.535C622.487 374.789 624.552 375.169 625.142 375.209C625.732 375.25 627.126 375.209 627.082 375.504C627.041 375.799 624.572 377.024 622.833 376.854C621.093 376.684 618.94 377.359 618.94 377.359L618.581 376.22H618.584Z" fill="#FFB27D"/>
<path d="M598.144 376.915C598.144 376.915 598.913 378.437 600.307 380.184C601.986 382.286 604.576 384.717 607.828 385.195C609.381 385.426 610.9 385.09 612.297 384.47H612.301C616.251 382.717 619.218 378.685 619.218 378.685C619.913 376.786 618.774 375.501 618.774 375.501C618.774 375.501 610.802 377.295 610.042 376.915C609.283 376.535 604.854 363.775 603.8 362.171C602.745 360.567 599.151 359.737 599.151 359.737L598.147 376.918L598.144 376.915Z" fill="#163560"/>
<path d="M568.395 462.983C568.395 462.983 565.964 465.204 566.435 466.78C566.91 468.357 569.107 469.408 569.402 471.338C569.701 473.267 570.888 474.318 571.956 474.318H577.049C577.049 474.318 577.835 472.962 575.937 472.552C574.038 472.141 573.322 469.876 573.441 467.774C573.56 465.672 573.261 462.867 573.261 462.867L569.226 461.931L568.395 462.983Z" fill="#233862"/>
<path d="M588.988 463.925C588.988 463.925 588.113 473.332 589.181 473.857L602.85 473.83C602.85 473.83 602.85 472.253 600.653 471.901C598.459 471.551 594.6 470.263 593.949 467.401C593.295 464.539 588.988 463.925 588.988 463.925Z" fill="#233862"/>
<path d="M579.246 396.443C582.061 390.136 583.78 388.325 583.451 386.365C583.207 384.907 584.197 359.194 584.197 359.194C584.529 359.092 585.2 358.997 585.567 358.916C586.72 358.658 587.676 357.848 588.073 356.736C588.551 355.396 588.93 353.416 588.924 350.934L589.283 351.005L595.343 352.205C595.343 352.205 595.204 354.111 595.2 355.908C595.2 355.922 595.2 355.939 595.2 355.952C595.193 357.512 596.217 358.889 597.716 359.323C598.483 359.543 599.147 359.733 599.147 359.733C599.147 359.733 601.372 366.084 601.796 372.608C602.219 379.133 597.75 381.967 601.829 395.009C605.993 408.325 577.693 399.929 579.246 396.443Z" fill="#FFB27D"/>
<path d="M595.343 352.209C595.343 352.209 595.204 354.115 595.2 355.912C591.809 355.817 590.019 352.724 589.283 351.009L595.343 352.209Z" fill="#E8945B"/>
<path d="M596.475 353.908C596.475 353.908 588.452 354.04 588.449 349.042C588.442 344.044 587.405 340.697 592.525 340.402C597.645 340.107 598.642 342.012 599.052 343.677C599.459 345.346 598.564 353.742 596.475 353.904V353.908Z" fill="#FFB27D"/>
<path d="M596.177 340.283C596.177 340.283 593.98 346.146 590.609 347.011C587.239 347.879 585.777 346.973 585.777 346.973C585.777 346.973 588.361 344.919 588.9 341.334C588.9 341.334 594.522 337.492 596.177 340.28V340.283Z" fill="#163560"/>
<path d="M595.634 340.758C595.634 340.758 597.262 341.368 597.933 342.555C598.588 343.718 599.147 345.254 599.018 347.143C599.018 347.143 600.673 343.159 598.815 340.904C596.841 338.513 595.638 340.758 595.638 340.758H595.634Z" fill="#163560"/>
<path d="M594.729 350.808C594.729 350.808 595.282 351.537 596.391 351.483C597.282 351.443 597.628 350.666 597.628 350.666C597.628 350.666 595.99 350.273 594.732 350.805L594.729 350.808Z" fill="#EBF3FA"/>
<path d="M580.338 370.571C580.338 370.571 580.369 374.375 580.572 377.82C580.708 380.106 580.918 382.232 581.247 382.988C582.071 384.887 582.996 385.196 582.996 385.196L590.175 386.955L592.698 387.573L600.656 385.196C600.656 385.196 604.281 375.077 602.826 369.384C601.372 363.687 599.147 359.733 599.147 359.733C599.147 359.733 592.654 366.091 584.197 359.194L580.338 370.571Z" fill="#163560"/>
<path d="M600.151 386.732C600.151 386.732 604.091 399 604.346 403.174C604.6 407.352 596.811 462.505 596.499 464.431C596.204 466.245 593.952 467.401 593.952 467.401C593.952 467.401 592.915 468.011 591.436 467.594C589.385 467.015 588.737 466.323 588.737 466.323C588.737 466.323 585.669 426.988 587.567 412.937C589.466 398.885 589.487 386.735 589.487 386.735H600.151V386.732Z" fill="#ED7D2B"/>
<path d="M583.451 386.369C583.451 386.369 577.439 394.436 576.879 399.888C576.32 405.341 576.001 424.493 574.807 429.81C573.614 435.127 569.226 445.354 569.226 461.935C569.226 461.935 569.68 462.885 571.091 463.393C571.542 463.556 572.146 463.712 572.729 463.848C573.888 464.115 575.082 463.546 575.611 462.478C578.578 456.506 588.025 437.246 588.51 433.248C588.852 430.42 591.836 411.692 598.344 400.706C599.907 398.068 597.384 387.579 597.384 387.579L583.454 386.372L583.451 386.369Z" fill="#FFB3AF"/>
<path d="M594.905 350.944C594.905 350.944 595.044 351.534 596.509 351.442C596.509 351.442 597.74 351.368 597.703 350.72C597.703 350.72 596.509 350.259 594.905 350.944Z" fill="white"/>
<path d="M600.778 384.84C600.778 384.84 599.195 386.091 596.055 386.155C592.301 386.23 582.996 385.199 582.996 385.199C582.996 385.199 582.583 386.355 582.6 387.573C582.6 387.573 593.962 390.438 600.544 387.99C600.544 387.99 601.392 386.393 600.778 384.84Z" fill="#233862"/>
<path d="M595.241 387.45C595.241 386.382 596.011 385.511 596.953 385.511C597.896 385.511 598.666 386.382 598.666 387.45C598.666 388.518 597.896 389.39 596.953 389.39C596.011 389.39 595.241 388.518 595.241 387.45ZM595.807 387.45C595.807 388.207 596.319 388.82 596.953 388.82C597.587 388.82 598.1 388.207 598.1 387.45C598.1 386.694 597.584 386.08 596.953 386.08C596.323 386.08 595.807 386.694 595.807 387.45Z" fill="white"/>
<path d="M568.501 405.734L586.38 409.59L588.541 399.57L570.662 395.714L568.501 405.734Z" fill="#163560"/>
<path d="M588.514 399.586C588.514 399.586 583.515 403.774 577.961 402.316C572.407 400.858 570.637 395.731 570.637 395.731L588.517 399.586H588.514Z" fill="#17467F"/>
<path d="M585.021 398.932C585.021 398.386 585.465 397.938 586.014 397.938C586.564 397.938 587.008 398.383 587.008 398.932C587.008 399.481 586.564 399.926 586.014 399.926C585.465 399.926 585.021 399.481 585.021 398.932ZM585.35 398.932C585.35 399.298 585.648 399.597 586.014 399.597C586.381 399.597 586.679 399.298 586.679 398.932C586.679 398.566 586.381 398.267 586.014 398.267C585.648 398.267 585.35 398.566 585.35 398.932Z" fill="#17467F"/>
<path d="M571.461 400.19C571.461 400.19 571.454 401.641 571.179 402.343C570.905 403.045 570.077 403.978 569.803 403.978C569.528 403.978 570.054 402.52 569.918 402.547C569.779 402.577 569.114 404.975 568.633 405.036C568.151 405.093 567.714 402.343 567.965 401.265C568.216 400.187 569.307 398.891 569.307 398.891L571.461 400.193V400.19Z" fill="#FFB27D"/>
<path d="M584.197 359.198C584.197 359.198 579.758 359.801 577.371 364.504C575.526 368.139 574.258 379.58 572.956 383.181C571.708 386.626 569.989 393.29 569.029 398.63C568.955 399.044 569.182 399.451 569.575 399.607L571.206 400.254C571.559 400.394 571.959 400.258 572.152 399.932C573.604 397.498 579.321 387.749 581.305 382.106C583.624 375.511 587.968 371.415 587.968 371.415L584.194 359.198H584.197Z" fill="#163560"/>
<path d="M586.34 398.162C586.35 398 587.384 381.689 587.184 372.517C587.079 367.702 586.337 364.308 585.73 362.31C585.068 360.13 584.082 359.238 584.054 359.194L583.719 359.292C583.742 359.333 586.482 363.453 586.676 372.524C586.872 381.672 585.841 397.962 585.831 398.125L586.337 398.156L586.34 398.162Z" fill="#0C2442"/>
<path d="M308.775 465.665L306.242 464.844C306.242 464.844 305.716 457.968 306.842 449.724C307.554 444.502 308.866 438.846 311.236 434.303C312.311 432.248 313.6 430.42 315.153 428.962C315.153 428.962 317.096 424.449 319.673 418.413C322.535 411.702 340.456 409.735 330.229 423.791C328.13 426.673 325.878 431.753 323.179 434.835C318.567 440.104 315.312 446.259 313.074 451.674C309.88 459.422 308.775 465.662 308.775 465.662V465.665Z" fill="#FFB27D"/>
<path d="M303.007 466.048C302.237 467.293 303.898 468.513 305.95 469.663C308.001 470.812 307.154 470.928 309.775 472.881C312.399 474.834 313.946 474.62 314.349 474.332C314.705 474.078 313.634 472.874 312.508 471.551C312.366 471.385 312.226 471.219 312.084 471.05C310.826 469.544 310.64 467.655 310.053 465.695C309.493 463.841 310.378 459.226 310.378 459.226L306.876 456.445C306.876 456.445 306.164 460.64 305.774 462.386C305.543 463.413 304.702 464.275 304.02 464.905C303.651 465.251 303.275 465.607 303.007 466.045V466.048Z" fill="#FFB27D"/>
<path d="M305.95 469.659C308.001 470.809 307.154 470.924 309.775 472.877C312.399 474.83 313.946 474.617 314.349 474.329C314.705 474.074 313.634 472.87 312.508 471.548L312.474 471.562C312.474 471.562 310.104 471.243 308.079 469.446C306.428 467.981 305.15 465.926 304.02 464.905C303.651 465.251 303.275 465.607 303.007 466.045C302.237 467.289 303.898 468.51 305.95 469.659Z" fill="#1C468A"/>
<path d="M293.8 470.131L290.881 471.643C290.881 471.643 289.135 469.368 287.575 466.618C286.483 464.692 285.479 462.535 285.235 460.765C284.638 456.472 280.091 449.412 280.566 448.212C281.037 447.011 290.054 444.929 290.054 444.929C290.054 444.929 291.817 456.994 292.987 464.793C293.329 467.069 293.621 468.981 293.804 470.127L293.8 470.131Z" fill="#FFB27D"/>
<path d="M291.576 453.285C289.908 454.095 288.358 454.56 287.025 454.821C285.042 455.211 283.553 455.143 282.892 455.078C282.648 455.055 282.519 455.031 282.519 455.031C282.519 455.031 280.898 453.861 279.016 451.138C277.294 448.643 276.012 445.072 276.012 445.028L289.779 443.688L291.573 453.285H291.576Z" fill="#2B478B"/>
<path d="M287.025 454.821C285.042 455.211 283.553 455.143 282.892 455.078L284.438 449.07C284.438 449.07 286.442 452.2 287.025 454.821Z" fill="#233862"/>
<path d="M293.8 470.131L290.881 471.643C290.881 471.643 289.135 469.368 287.575 466.618C288.789 466.526 290.901 466.16 292.987 464.797C293.329 467.072 293.621 468.984 293.804 470.131H293.8Z" fill="white"/>
<path d="M287.164 447.69C287.164 447.69 283.475 452.898 281.237 460.216C280.712 461.942 278.918 464.088 277.107 465.994C275.35 467.845 273.574 469.469 272.916 470.27L269.942 468.839C269.942 468.839 270.986 465.841 272.533 463.118C273.106 462.108 273.747 461.135 274.435 460.365C275.381 459.304 275.069 445.913 276.015 445.028C276.961 444.146 287.164 447.69 287.164 447.69Z" fill="#FFB27D"/>
<path d="M288.921 444.59L283.472 455.665C283.441 455.668 279.409 455.79 276.551 454.19C274.91 453.271 274.174 452.186 274.174 452.186L275.873 444.594H288.921V444.59Z" fill="#2B478B"/>
<path d="M279.162 407.613C279.162 407.613 277.307 403.716 272.831 406.036C268.355 408.355 272.712 417.199 270.363 419.386C268.013 421.57 271.214 423 270.736 424.567C270.257 426.134 271.621 427.914 274.754 427.704C277.887 427.493 281.186 427.663 282.6 424.923C284.014 422.183 283.696 416.151 283.146 415.303C282.6 414.455 279.159 407.616 279.159 407.616L279.162 407.613Z" fill="#B64C41"/>
<path d="M278.792 423.804L278.805 423.811L278.792 423.804Z" fill="#FFB27D"/>
<path d="M286.418 428.406L278.806 423.811C278.846 423.794 279.002 423.563 279.572 421.919C279.813 421.217 279.942 420.607 280.006 420.125C280.013 420.078 280.02 420.03 280.023 419.983C280.101 419.281 280.043 418.877 280.043 418.877L281.712 419.481L284.797 420.596C284.76 421.38 284.872 421.929 285.038 422.305C285.442 423.221 286.191 423.228 286.211 423.228L286.422 428.402L286.418 428.406Z" fill="#FFB27D"/>
<path d="M285.035 422.309C282.054 422.563 280.376 420.617 280.006 420.128C279.952 420.057 279.925 420.016 279.925 420.016C279.925 420.016 279.962 420.006 280.023 419.986C280.264 419.915 280.922 419.715 281.712 419.481L284.798 420.596C284.76 421.38 284.872 421.929 285.038 422.305L285.035 422.309Z" fill="#3552CE"/>
<path d="M285.184 421.237C285.184 421.237 278.562 421.966 278.426 417.487C278.29 413.008 277.31 410.959 281.895 410.559C286.476 410.159 287.561 411.811 287.829 413.326C288.673 418.06 287.052 421.037 285.184 421.237Z" fill="#FFB27D"/>
<path d="M272.834 406.034C272.743 405.828 272.675 405.693 272.675 405.693C272.743 405.788 272.797 405.902 272.834 406.034Z" fill="#D35C2B"/>
<path d="M287.314 423.679C287.314 423.679 293.665 418.799 294.343 417.185C295.021 415.571 297.937 409.657 298.69 409.054C298.69 409.054 300.27 408.85 300.494 409.942C300.721 411.034 298.992 417.521 297.785 419.477C296.581 421.434 290.806 428.073 288.911 429.036L287.317 423.675L287.314 423.679Z" fill="#FFB27D"/>
<path d="M302.746 406.066C302.64 406.633 302.41 407.24 302.139 407.552C301.783 407.972 301.216 408.806 300.86 409.352C300.63 409.688 300.484 409.939 300.484 409.939L298.683 409.061C298.683 409.061 298.643 406.002 299.836 405.354C299.877 405.334 299.897 405.314 299.941 405.314C300.443 405.042 300.925 404.852 301.345 404.727C301.911 404.581 302.349 404.561 302.6 404.707C302.83 404.832 302.871 405.439 302.746 406.066Z" fill="#FFB27D"/>
<path d="M282.251 412.75C279.908 412.157 280.803 416.31 280.213 416.026C279.552 415.707 278.413 415.714 278.592 416.514C278.772 417.314 279.03 417.599 279.165 418.101C279.301 418.599 279.165 419.589 278.619 419.389C278.073 419.189 273.007 413.404 276.585 408.895C280.162 404.388 290.833 407.165 287.473 411.879C286.883 412.709 283.919 413.174 282.251 412.753V412.75Z" fill="#B64C41"/>
<path d="M290.755 446.221C290.755 446.221 288.765 447.276 285.632 447.228C283.634 447.198 279.396 446.33 276.673 445.346C275.12 444.787 274.058 444.19 274.187 443.688C274.37 442.966 275.7 437.415 276.931 432.278C278.053 427.582 279.094 423.231 279.094 423.231C279.094 423.231 282.197 425.435 284.004 424.659C285.811 423.879 285.581 423 285.581 423C285.581 423 286.764 422.522 287.317 422.699C287.87 422.875 289.446 421.983 289.446 421.983C289.446 421.983 291.186 423.326 291.25 426.212C291.261 426.639 291.237 427.1 291.159 427.595L289.904 429.04C289.904 429.04 292.566 437.432 290.759 446.221H290.755Z" fill="#FFB3AF"/>
<path d="M277.107 465.994C275.35 467.845 273.574 469.47 272.916 470.27L269.942 468.839C269.942 468.839 270.986 465.841 272.533 463.118C273.065 463.946 274.462 465.651 277.107 465.994Z" fill="white"/>
<path d="M280.79 438.731C280.79 438.731 282.702 438.375 283.451 438.863C284.201 439.352 284.421 440.118 283.882 440.433C282.193 441.413 280.481 440.328 280.481 440.328L280.79 438.731Z" fill="#FFB27D"/>
<path d="M279.169 423.831C279.169 423.831 273.279 425.079 270.952 434.238C270.725 435.133 270.959 436.089 271.58 436.778C272.648 437.961 275.005 439.694 280.481 440.331C281.078 440.403 281.159 438.883 281.159 438.883C281.098 439.006 277.439 436.517 275.879 435.181C275.598 434.94 275.608 434.431 275.812 434.123C276.337 433.319 277.222 431.929 277.517 431.217C277.951 430.176 280.81 424.306 279.165 423.831H279.169Z" fill="#FFB27D"/>
<path d="M279.094 423.231C279.094 423.231 275.632 423.479 272.807 427.243C272.807 427.243 273.764 430.708 278.25 431.63C278.25 431.63 281.017 425.395 279.094 423.228V423.231Z" fill="#FFB3AF"/>
<path d="M326.319 333.759C326.319 333.759 320.137 333.006 317.031 338.757C313.925 344.508 314.176 352.84 311.162 356.77C308.151 360.7 311.664 364.426 311.664 364.426L335.135 365.22C335.135 365.22 336.766 360.825 335.135 355.556C333.504 350.283 341.473 334.556 326.319 333.759Z" fill="#B64C41"/>
<path d="M346.193 403.564C345.953 404.483 345.166 406.555 344.555 406.555C344.057 406.555 343.881 404.018 343.24 403.479C342.311 402.699 341.554 401.058 341.432 400.661C341.185 399.844 340.951 399.671 340.951 399.671C340.951 399.671 333.528 386.101 332.948 382.629C332.759 381.5 332.274 379.228 331.701 376.688C331.08 373.924 330.361 370.839 329.819 368.529C332.189 368.068 334.81 367.905 336.946 367.865C337.38 370.676 337.77 373.548 338.106 376.047C338.604 379.76 338.984 382.642 339.218 383.259C339.862 384.955 341.643 394.087 343.318 398.827C343.511 399.295 344.054 400.509 344.65 400.923C345.396 401.438 346.434 402.652 346.197 403.571L346.193 403.564Z" fill="#E8945B"/>
<path d="M332.741 390.17C328.642 377.064 336.895 377.237 336.468 370.679C336.041 364.121 330.965 357.071 330.965 357.071C330.965 357.071 330.782 357.054 330.466 357.024C330.293 357.007 330.144 356.895 330.083 356.729C329.893 356.21 329.839 355.078 329.842 353.894C329.846 352.09 329.985 350.174 329.985 350.174L323.895 348.967L323.532 348.896C323.542 351.958 322.962 354.26 322.335 355.549C322.036 356.159 321.453 356.58 320.778 356.675C319.469 356.858 317.17 357.248 315.617 357.899C314.865 358.214 314.288 358.587 314.088 359.028C312.416 362.704 310.748 371.985 309.575 378.604C308.92 382.293 308.422 385.155 308.161 385.762C307.435 387.454 305.218 396.769 303.322 401.367L305.743 402.092C305.743 402.092 313.725 388.844 314.451 385.399C314.688 384.277 315.268 382.032 315.946 379.516C316.048 379.136 316.153 378.749 316.258 378.36C317.455 381.605 318.066 383.107 318.032 384.507C317.984 386.501 316.631 388.295 313.807 394.636C312.243 398.139 336.929 403.561 332.741 390.177V390.17Z" fill="#FFB27D"/>
<path d="M329.981 350.174C329.981 350.174 329.842 352.09 329.839 353.894C326.431 353.799 324.63 350.69 323.891 348.967L329.981 350.174Z" fill="#E8945B"/>
<path d="M331.117 351.883C331.117 351.883 323.057 352.016 323.05 346.994C323.043 341.972 321.999 338.608 327.146 338.31C332.294 338.011 333.294 339.927 333.704 341.602C334.115 343.277 333.213 351.717 331.117 351.88V351.883Z" fill="#FFB27D"/>
<path d="M342.368 468.914L339.781 469.551C339.781 469.551 335.712 463.98 332.331 456.381C330.188 451.566 328.323 446.066 327.947 440.956C327.777 438.643 327.913 436.408 328.462 434.353C328.462 434.353 327.74 429.491 326.75 423.004C325.651 415.792 324.227 406.572 323.111 399.793L323.786 399.593L334.793 393.157C334.793 393.157 339.852 404.687 338.557 422.017C338.292 425.574 339.052 431.074 338.377 435.12C337.231 442.03 337.702 448.975 338.655 454.757C340.018 463.024 342.365 468.914 342.365 468.914H342.368Z" fill="#FFB27D"/>
<path d="M315.78 377.051C317.292 381.225 318.069 382.927 318.032 384.504C322.847 377.047 331.548 375.921 331.548 375.921L315.031 374.033C315.183 375.053 315.427 376.067 315.783 377.051H315.78Z" fill="#CB7D45"/>
<path d="M333.467 338.812C332.222 337.303 331.283 337.631 330.754 338.086C326.431 335.688 323.504 339.246 323.504 339.246C322.965 342.85 320.368 344.912 320.368 344.912C320.368 344.912 321.802 345.675 325.224 344.949C329.286 344.088 330.402 339.51 330.564 338.917C331.056 339.357 332.026 340.317 332.321 341.26C332.724 342.538 332.904 345.169 333.67 345.081C333.67 345.081 335.332 341.077 333.464 338.812H333.467Z" fill="#B64C41"/>
<path d="M303.492 400.96C303.492 400.96 302.756 402.692 301.989 403.177C301.223 403.662 300.135 404.832 300.335 405.758C300.535 406.687 300.738 408.138 301.705 408.138C302.671 408.138 304.929 403.866 305.214 403.059C305.496 402.252 305.74 402.092 305.74 402.092L303.492 400.963V400.96Z" fill="#FFB27D"/>
<path d="M341.476 439.07C331.741 444.631 306.116 435.774 306.143 435.262C306.279 432.539 308.741 416.151 311.633 400.512C313.41 390.896 318.144 387.301 317.387 386.694L317.377 386.684C314.458 384.612 315.719 381.059 315.912 379.787C315.017 380.028 312.125 380.574 308.815 378.746C310.178 372.08 312.121 362.734 314.068 359.031C314.163 358.852 314.325 358.686 314.546 358.526C314.532 358.513 314.525 358.503 314.525 358.503C316.35 357.173 320.073 356.766 320.073 356.766C320.073 356.766 322.08 361.68 322.694 362.45C326.668 367.414 333.803 365.172 332.83 362.08C332.48 360.954 330.676 357.411 330.456 357.014C330.446 356.994 330.961 357.061 330.961 357.061C332.158 357.221 333.006 357.339 333.616 357.445C334.813 357.648 335.112 357.79 335.41 358.021C336.461 359.072 337.828 361.68 337.936 366.339C337.977 368.072 339.781 387.196 333.945 386.867C333.813 386.861 333.925 387.173 334.179 387.763C335.003 389.658 337.343 394.409 338.021 400.506C340.229 420.339 341.476 439.063 341.476 439.063V439.07Z" fill="white"/>
<path d="M328.801 348.916C328.801 348.916 328.954 349.533 330.497 349.422C330.497 349.422 331.792 349.327 331.744 348.645C331.744 348.645 330.483 348.174 328.805 348.916H328.801Z" fill="white"/>
<path d="M305.214 403.059C305.214 403.059 304.95 405.009 304.434 405.46C303.919 405.911 303.844 406.721 303.319 406.284C302.793 405.846 305.214 403.059 305.214 403.059Z" fill="#FFB27D"/>
<path d="M337.665 472.277C337.665 473.739 339.72 473.901 342.07 473.8C344.42 473.698 343.758 474.24 347.017 474.522C350.276 474.8 351.479 473.803 351.669 473.349C351.839 472.945 350.293 472.484 348.641 471.955C348.434 471.891 348.224 471.819 348.017 471.752C346.156 471.134 345.003 469.626 343.47 468.269C342.019 466.984 340.34 462.596 340.34 462.596L335.898 462.074C335.898 462.074 337.502 466.014 338.089 467.706C338.435 468.7 338.174 469.873 337.926 470.772C337.794 471.26 337.662 471.758 337.662 472.274L337.665 472.277Z" fill="#FFB27D"/>
<path d="M341.476 439.07C331.741 444.631 306.116 435.774 306.143 435.262C306.279 432.539 308.741 416.151 311.633 400.512C313.41 390.896 318.144 387.301 317.387 386.694C317.567 386.84 320.314 389.054 325.349 388.753C329.856 388.481 333.328 387.918 334.179 387.766C335.003 389.661 337.343 394.412 338.021 400.509C340.229 420.342 341.476 439.067 341.476 439.067V439.07Z" fill="#FFB3AF"/>
<path d="M317.377 386.688C317.377 386.688 325.349 390.014 333.945 386.877L334.383 388.224C334.383 388.224 325.536 391.296 317.031 387.8L317.377 386.688Z" fill="#ED7D2B"/>
<path d="M652.873 342.799C652.873 342.799 645.993 344.006 644.436 348.069C642.88 352.131 634.094 417.721 634.094 417.721C634.094 417.721 638.444 421.169 647.786 419.932C657.125 418.694 652.873 342.802 652.873 342.802V342.799Z" fill="#9DB0F4"/>
<path d="M642.632 471.948C642.608 473.121 642.463 474.234 642.035 474.674H624.959C625.176 474.057 625.79 473.128 627.543 472.843C629.536 472.521 632.639 471.562 634.453 469.646C635.101 468.964 635.579 468.161 635.793 467.225C636.596 463.647 642.435 468.32 642.435 468.32C642.435 468.32 642.673 470.202 642.632 471.952V471.948Z" fill="#233862"/>
<path d="M635.281 470.209C637.19 470.819 640.835 472.677 643.154 471.802C644.65 471.239 653.022 447.028 653.564 436.435C653.605 435.666 653.754 434.591 653.992 433.282C654.487 430.549 655.355 426.792 656.352 422.648C659.031 411.543 662.652 397.654 662.574 393.211C662.452 386.321 642.035 391.767 642.035 391.767C642.035 391.767 640.631 397.42 640.35 405.605C639.797 421.851 638.271 449.294 634.124 468.35C633.948 469.157 634.484 469.958 635.274 470.209H635.281Z" fill="#233862"/>
<path d="M649.448 393.235L660.241 471.456C660.241 471.456 664.982 472.599 668.667 471.684C668.667 471.684 671.828 430.081 671.563 420.023C671.299 409.966 673.832 393.11 670.987 391.252C668.142 389.393 649.451 393.232 649.451 393.232L649.448 393.235Z" fill="#2B478B"/>
<path d="M672.35 346.383C672.35 346.383 661.007 339.049 652.873 342.799C651.577 343.396 650.099 345.064 649.038 346.231C646.098 349.472 640.35 400.943 640.35 400.943C640.35 400.943 656.66 406.467 672.347 399.068V346.38L672.35 346.383Z" fill="white"/>
<path d="M652.228 342.613C652.228 342.613 640.747 347.319 639.19 350.934C637.634 354.548 632.581 376.752 632.581 379.356C632.581 381.961 641.381 379.94 642.798 375.738C643.975 372.252 647.942 361.537 650.034 354.762L652.228 342.609V342.613Z" fill="#9DB0F4"/>
<path d="M654.612 346.2C657.118 346.692 660.801 346.17 663.496 344.389C662.279 341.483 661.781 339.188 661.604 337.702C661.594 337.624 661.587 337.547 661.577 337.472C661.496 336.702 661.509 336.18 661.547 335.939H655.067C655.067 335.939 653.297 336.75 653.297 337.309C653.297 337.608 653.297 337.896 653.29 338.167C653.276 338.913 653.246 339.564 653.208 340.12C653.086 341.938 652.876 342.796 652.876 342.796C652.876 342.796 652.083 345.698 654.616 346.197L654.612 346.2Z" fill="#FFB27D"/>
<path d="M653.205 340.124C658.115 341.073 660.963 338.391 661.604 337.702C661.696 337.604 661.743 337.547 661.743 337.547C661.692 337.519 661.638 337.496 661.58 337.475C659.753 336.736 655.606 337.323 653.29 338.174C653.276 338.92 653.246 339.571 653.208 340.127L653.205 340.124Z" fill="#E2915A"/>
<path d="M663.208 334.874C662.33 339.595 656.24 339.442 653.605 339.144C652.862 339.062 652.398 338.967 652.398 338.967C651.564 338.743 651.096 337.428 650.879 335.705C650.448 332.294 650.991 327.286 651.567 326.004C652.435 324.078 654.07 321.992 660.204 323.498C666.341 325.004 664.331 328.825 663.205 334.874H663.208Z" fill="#FFB27D"/>
<path d="M651.34 323.373C652.178 322.213 653.958 320.792 655.572 319.921C659.041 318.042 663.483 319.978 663.5 319.989C668.512 322.193 669.82 326.028 667.162 331.999C664.351 338.316 661.679 337.604 661.679 337.604C661.679 337.604 662.245 337.252 662.194 335.281C662.194 335.17 662.187 335.075 662.181 334.997C662.154 334.593 662.296 334.19 662.598 333.918C663.222 333.362 663.523 331.684 663.001 331.216C662.374 330.653 661.489 331.338 661.207 331.863C660.96 332.236 660.519 332.365 660.109 332.104C658.549 331.117 659.563 329.147 658.071 327.94C656.579 326.733 653.558 327.747 651.32 326.784C648.393 325.692 650.706 324.247 651.337 323.373H651.34Z" fill="#233862"/>
<path d="M650.641 422.539C651.628 422.794 652.605 423 653.578 423.163C654.436 423.309 655.294 423.418 656.148 423.492C661.001 423.916 665.877 423.231 671.577 421.597C672.859 421.23 674.184 420.81 675.561 420.349C675.707 420.301 675.188 405.229 674.585 389.685C674.524 388.081 674.459 386.47 674.398 384.87C674.371 384.192 674.344 383.517 674.317 382.845C673.771 369.099 673.232 356.681 673.116 356.013C672.855 354.501 672.611 353.212 672.347 352.093C671.57 348.835 670.607 347.051 668.505 345.515C668.301 345.359 666.619 344.511 665.137 343.776C663.91 343.165 662.818 342.633 662.818 342.633C662.33 342.874 661.743 343.993 661.129 345.566C660 348.465 658.783 352.9 657.935 356.217C657.935 356.227 657.932 356.23 657.932 356.234C657.386 358.373 656.996 360.042 656.884 360.52C656.694 361.327 656.443 362.89 656.152 365.009C655.751 367.892 655.277 371.808 654.772 376.25C654.721 376.708 654.666 377.169 654.616 377.637C654.555 378.169 654.493 378.709 654.436 379.255C654.415 379.431 654.399 379.604 654.378 379.78C654.185 381.54 653.988 383.354 653.795 385.199C653.632 386.725 651.32 387.827 651.16 389.38C651.069 390.292 650.875 398.698 650.628 401.38C650.452 403.296 650.577 421.644 650.645 422.546L650.641 422.539Z" fill="#AEC3FF"/>
<path d="M667.382 361.558C667.389 361.588 667.776 375.46 657.342 377.142C646.908 378.827 653.839 379.272 653.839 379.272C653.839 379.272 673.469 378.437 673.795 377.919C674.12 377.4 667.382 361.554 667.382 361.554V361.558Z" fill="#9DB0F4"/>
<path d="M658.566 383.096C658.566 383.096 658.763 383.235 659.139 383.476C659.146 383.476 659.153 383.483 659.159 383.486C660.75 384.504 665.473 387.271 672.353 389.129C673.076 389.326 673.822 389.509 674.591 389.682C674.53 388.078 674.466 386.467 674.405 384.867C675.314 384.795 676.182 384.68 676.989 384.51C676.962 384.3 676.934 384.087 676.907 383.876C676.032 383.517 675.164 383.171 674.323 382.842C673.642 382.574 672.981 382.32 672.353 382.086C669.529 381.011 667.433 380.285 667.433 380.285L659.071 382.934L658.569 383.093L658.566 383.096Z" fill="#9DB0F4"/>
<path d="M656.352 382.866C656.352 382.866 657.427 383.134 659.136 383.48C659.142 383.48 659.146 383.48 659.153 383.483C662.306 384.117 667.61 385.005 672.347 384.958C673.045 384.951 673.733 384.924 674.398 384.87C675.307 384.799 676.175 384.683 676.982 384.514C678.715 384.148 680.163 383.53 681.112 382.564C688.158 375.385 677.267 349.625 674.978 347.119C672.306 344.193 667.423 343.165 664.731 342.813C664.619 342.799 664.51 342.785 664.405 342.772C663.459 342.66 662.849 342.636 662.815 342.633C662.815 342.633 663.025 343.311 663.381 344.464C663.52 344.908 663.679 345.427 663.852 346.003C665.507 351.422 668.701 362.076 670.109 368.082C670.624 370.279 670.899 371.856 670.773 372.327C670.224 374.378 664.531 375.433 660.923 375.901C659.417 376.094 658.278 376.186 658.02 376.206C658.003 376.206 657.986 376.206 657.966 376.209L657.756 377.064L657.257 379.115L656.765 381.13L656.345 382.862L656.352 382.866Z" fill="#AEC3FF"/>
<path d="M636.698 395.212L660.899 394.192L655.989 364.033L631.788 365.054L636.698 395.212Z" fill="#FFB3AF"/>
<path d="M657.972 376.209C657.972 376.209 653.263 375.881 653.025 376.979C652.476 379.539 657.074 381.642 658.566 381.496C660.058 381.353 659.058 376.037 657.972 376.209Z" fill="#FFB27D"/>
<path d="M633.111 371.177C633.111 371.177 637.617 369.767 638.102 370.781C639.231 373.144 635.24 376.254 633.758 376.457C632.273 376.661 632.019 371.259 633.111 371.174V371.177Z" fill="#FFB27D"/>
<path d="M662.33 341.117C662.33 341.117 664.564 341.504 665.558 342.931C665.558 342.931 657.895 356.352 657.928 356.23C657.962 356.108 660.431 342.765 662.326 341.117H662.33Z" fill="#9DB0F4"/>
<path d="M653.103 341.3C652.452 341.548 651.198 342.83 650.916 343.538L650.035 354.769C650.035 354.769 651.916 346.529 652.873 342.802C653.117 341.856 653.073 341.568 653.103 341.304V341.3Z" fill="#9DB0F4"/>
<path d="M647.966 364.372C647.966 364.372 647.776 363.534 646.674 363.633C645.572 363.731 639.384 364.033 639.384 364.033C639.384 364.033 638.19 364.012 638.302 364.779L647.969 364.372H647.966Z" fill="#C65447"/>
</svg>
